<svg width="37" height="37" viewBox="0 0 37 37" fill="none" xmlns="http://www.w3.org/2000/svg">
<path d="M35.0557 29.4316C35.0557 32.5254 32.5244 35.0566 29.4307 35.0566H6.93066C3.83691 35.0566 1.30566 32.5254 1.30566 29.4316L1.30566 6.93164C1.30566 3.83789 3.83691 1.30664 6.93066 1.30664L29.4307 1.30664C32.5244 1.30664 35.0557 3.83789 35.0557 6.93164V29.4316Z" fill="#DE2F37"/>
<path d="M28.3057 12.1066L24.2557 8.05664L18.1807 14.1316L12.1057 8.05664L8.05566 12.1066L14.1307 18.1816L8.05566 24.2566L12.1057 28.3066L18.1807 22.2316L24.2557 28.3066L28.3057 24.2566L22.2307 18.1816L28.3057 12.1066Z" fill="white"/>
</svg>
