<svg width="55" height="55" viewBox="0 0 55 55" fill="none" xmlns="http://www.w3.org/2000/svg">
<g clip-path="url(#clip0_2401_1046)">
<rect x="0.290039" y="0.291016" width="53.7936" height="53.7936" rx="26.8968" fill="white"/>
<path d="M28.9443 0.348633C30.8712 0.47261 32.7613 0.799571 34.6133 1.3291C36.2199 1.79136 37.7681 2.39711 39.2578 3.14648C40.7624 3.90506 42.1845 4.79808 43.5244 5.82422C46.8101 8.35628 49.3886 11.4728 51.2588 15.1738C53.0126 18.7074 53.9496 22.442 54.0693 26.377C54.0741 26.3749 54.0792 26.3722 54.084 26.3701V27.9746C53.8339 35.2903 50.6734 42.205 45.3193 47.0527C40.4485 51.4641 34.6697 53.8083 27.9834 54.085H26.3887C26.381 54.0654 26.3528 54.06 26.3047 54.0684V54.0674C21.6819 53.9056 17.3848 52.6475 13.4141 50.292C10.7524 48.6901 8.43588 46.7022 6.46484 44.3291C5.48425 43.1405 4.61237 41.8852 3.84961 40.5635C3.04136 39.1543 2.37007 37.6955 1.83496 36.1875L6.62598 31.5488C6.9776 33.164 7.49481 34.6992 8.17773 36.1533C8.87602 37.6178 9.7234 38.9806 10.7207 40.2412L11.0918 40.6924C12.9723 42.9186 15.2204 44.6921 17.8359 46.0127C22.6472 48.3332 27.6546 48.8064 32.8574 47.4336C37.4612 46.0901 41.1862 43.5294 44.0312 39.75C45.6758 37.5647 46.8509 35.1008 47.5576 32.3594C48.6124 28.0301 48.3611 23.7871 46.8027 19.6309C45.2169 15.6258 42.6707 12.3885 39.165 9.9209C37.9732 9.09551 36.7133 8.40078 35.3857 7.83594L34.8125 7.60156C33.0754 6.92846 31.2656 6.48968 29.3828 6.28516C29.0845 6.26345 28.7746 6.24227 28.4531 6.22266C26.6789 6.11479 24.9178 6.22812 23.1709 6.56152C20.3042 7.12539 17.7162 8.20046 15.4062 9.78613C11.0042 12.8077 8.12411 16.9426 6.7666 22.1914L6.64941 22.7119C6.09832 25.3114 6.02841 27.915 6.43945 30.5225C6.46186 30.6667 6.52347 31.0089 6.625 31.5488L1.83496 36.1875C1.04495 33.9554 0.558297 31.6729 0.375977 29.3398L0.34375 28.873L0.290039 28.0137L0.290039 26.3809C0.574782 18.2226 4.41784 10.7387 10.9023 5.78906C15.3732 2.37723 20.5275 0.544574 26.3643 0.291016L27.9834 0.291016L28.9443 0.348633Z" fill="#FE8D18"/>
<path d="M22.8086 12.7715L29.1982 12.7803C32.2527 12.71 35.4797 13.619 37.7188 15.7334L37.9326 15.9414L38.1514 16.1748C39.2219 17.3555 39.9287 18.7233 40.2715 20.2783C40.759 22.4889 40.5207 24.9908 39.3818 27.0186C37.4801 30.4058 33.3643 31.7675 29.707 31.8105C27.9581 31.8316 26.3325 31.834 24.8301 31.8193C24.8209 31.8192 24.8113 31.8208 24.8027 31.8242C24.7943 31.8276 24.7868 31.8335 24.7803 31.8398C24.7739 31.8461 24.7682 31.8531 24.7646 31.8613C24.7612 31.8696 24.7598 31.8788 24.7598 31.8877L24.7598 32.8516C24.7598 32.8672 24.7661 32.8825 24.7773 32.8936C24.7885 32.9044 24.8036 32.9101 24.8193 32.9102H30.9248C30.9294 32.9102 30.9343 32.9113 30.9385 32.9131C30.9426 32.9148 30.9461 32.9178 30.9492 32.9209C30.9524 32.9241 30.9553 32.9275 30.957 32.9316C30.9588 32.9358 30.96 32.9408 30.96 32.9453V38.2002C30.96 38.2166 30.953 38.2325 30.9414 38.2441C30.9298 38.2558 30.9139 38.2627 30.8975 38.2627H24.8262C24.8089 38.2627 24.7915 38.269 24.7793 38.2813C24.7672 38.2934 24.7609 38.3101 24.7607 38.3271V41.5479C24.7607 41.5648 24.7534 41.5808 24.7412 41.5928C24.729 41.6048 24.7126 41.6123 24.6953 41.6123H17.8457C17.8357 41.6123 17.8255 41.6077 17.8184 41.6006C17.8114 41.5935 17.8076 41.5841 17.8076 41.5742V38.2959C17.8076 38.2872 17.804 38.2787 17.7979 38.2725C17.7915 38.2662 17.7824 38.2627 17.7734 38.2627L14.1631 38.2617L13.9219 38.2559C13.907 38.2553 13.8932 38.249 13.8828 38.2383C13.8724 38.2275 13.8662 38.2132 13.8662 38.1982L13.8662 32.9473C13.8662 32.9374 13.8701 32.9279 13.877 32.9209C13.884 32.9138 13.8943 32.9092 13.9043 32.9092L17.7451 32.9102C17.7615 32.9102 17.7775 32.9041 17.7891 32.8926C17.8007 32.881 17.8076 32.865 17.8076 32.8486L17.8076 31.8828C17.8076 31.8675 17.8008 31.8526 17.79 31.8418C17.7793 31.8313 17.765 31.8253 17.75 31.8252H13.9287C13.9123 31.8252 13.8964 31.8183 13.8848 31.8066C13.8732 31.795 13.8662 31.7791 13.8662 31.7627L13.8662 26.5176C13.8662 26.5093 13.868 26.5008 13.8711 26.4932C13.8743 26.4854 13.8788 26.4776 13.8848 26.4717C13.8907 26.4657 13.8985 26.4612 13.9062 26.458C13.9139 26.4549 13.9224 26.4531 13.9307 26.4531L17.7539 26.4531C17.7686 26.4531 17.7826 26.4469 17.793 26.4365C17.8034 26.4261 17.8096 26.4122 17.8096 26.3975L17.8105 24.6689L17.8105 12.8184C17.8106 12.8055 17.816 12.7933 17.8252 12.7842C17.8347 12.7749 17.848 12.7695 17.8613 12.7695L22.8086 12.7715ZM28.1494 18.1533C27.0429 18.1694 25.9303 18.17 24.8125 18.1553C24.8058 18.1551 24.7982 18.1557 24.792 18.1582C24.7859 18.1607 24.7801 18.1652 24.7754 18.1699C24.7707 18.1746 24.7672 18.1804 24.7646 18.1865C24.7621 18.1927 24.7608 18.1994 24.7607 18.2061L24.7607 26.3896C24.7607 26.4041 24.7663 26.4183 24.7764 26.4287C24.7866 26.4391 24.8008 26.445 24.8154 26.4453L26.1357 26.4561C27.1562 26.4533 28.1808 26.4513 29.209 26.4492C31.2525 26.445 33.0863 25.6178 33.3857 23.3789C33.5034 22.4993 33.4502 21.6618 33.2275 20.8662L33.1289 20.6162C32.6125 19.3981 31.7589 18.6332 30.5684 18.3213C30.0774 18.1932 29.2711 18.1372 28.1494 18.1533Z" fill="#FEA42B"/>
</g>
<defs>
<clipPath id="clip0_2401_1046">
<rect x="0.290039" y="0.291016" width="53.7936" height="53.7936" rx="26.8968" fill="white"/>
</clipPath>
</defs>
</svg>
